<?xml version="1.0" encoding="UTF-8" standalone="no"?>
<!DOCTYPE svg PUBLIC "-//W3C//DTD SVG 1.1//EN"
 "http://www.w3.org/Graphics/SVG/1.1/DTD/svg11.dtd">
<!-- Generated by graphviz version 8.0.5 (20230430.1635)
 -->
<!-- Title: Acquire Fileserver Token Pages: 1 -->
<svg width="700pt" height="218pt"
 viewBox="0.00 0.00 699.70 217.80" xmlns="http://www.w3.org/2000/svg" xmlns:xlink="http://www.w3.org/1999/xlink">
<g id="graph0" class="graph" transform="scale(1 1) rotate(0) translate(14.4 203.4)">
<title>Acquire Fileserver Token</title>
<polygon fill="white" stroke="none" points="-14.4,14.4 -14.4,-203.4 685.3,-203.4 685.3,14.4 -14.4,14.4"/>
<g id="clust1" class="cluster">
<title>cluster_Gafaelfawr</title>
<path fill="#e5f5fd" stroke="#aeb6be" d="M558.1,-8C558.1,-8 650.9,-8 650.9,-8 656.9,-8 662.9,-14 662.9,-20 662.9,-20 662.9,-169 662.9,-169 662.9,-175 656.9,-181 650.9,-181 650.9,-181 558.1,-181 558.1,-181 552.1,-181 546.1,-175 546.1,-169 546.1,-169 546.1,-20 546.1,-20 546.1,-14 552.1,-8 558.1,-8"/>
<text text-anchor="middle" x="582.98" y="-165.6" font-family="Sans-Serif" font-size="12.00" fill="#2d3436">Gafaelfawr</text>
</g>
<!-- 1000fed991404549971de7e3f2bfc216 -->
<g id="node1" class="node">
<title>1000fed991404549971de7e3f2bfc216</title>
<image xlink:href="/Users/adam/Documents/src/Venvs/sphinx/lib/python3.9/site-packages/resources/onprem/client/user.png" width="100.8px" height="100.8px" preserveAspectRatio="xMinYMin meet" x="-1.42109e-14" y="-133.4"/>
<text text-anchor="middle" x="50.4" y="-15.95" font-family="Sans-Serif" font-size="12.00" fill="#2d3436">User</text>
</g>
<!-- 670d604c6ac4470cb07c059c660a8221 -->
<g id="node2" class="node">
<title>670d604c6ac4470cb07c059c660a8221</title>
<image xlink:href="/Users/adam/Documents/src/Venvs/sphinx/lib/python3.9/site-packages/resources/onprem/client/client.png" width="100.8px" height="100.8px" preserveAspectRatio="xMinYMin meet" x="302.55" y="-133.4"/>
<text text-anchor="middle" x="352.95" y="-15.95" font-family="Sans-Serif" font-size="12.00" fill="#2d3436">Browser</text>
</g>
<!-- 1000fed991404549971de7e3f2bfc216&#45;&gt;670d604c6ac4470cb07c059c660a8221 -->
<g id="edge1" class="edge">
<title>1000fed991404549971de7e3f2bfc216&#45;&gt;670d604c6ac4470cb07c059c660a8221</title>
<path fill="none" stroke="#7b8894" d="M100.69,-83C153,-83 235.67,-83 291.78,-83"/>
<polygon fill="#7b8894" stroke="#7b8894" points="291.63,-86.5 301.63,-83 291.63,-79.5 291.63,-86.5"/>
<text text-anchor="middle" x="201.67" y="-84.15" font-family="Sans-Serif" font-size="13.00" fill="#2d3436">Acquire Fileserver Token</text>
</g>
<!-- ff1fe0c75c9d471b92cb10dad8cdb918 -->
<g id="node3" class="node">
<title>ff1fe0c75c9d471b92cb10dad8cdb918</title>
<image xlink:href="/Users/adam/Documents/src/Venvs/sphinx/lib/python3.9/site-packages/resources/k8s/compute/deploy.png" width="100.8px" height="100.8px" preserveAspectRatio="xMinYMin meet" x="554.1" y="-134.4"/>
<text text-anchor="middle" x="604.5" y="-16.95" font-family="Sans-Serif" font-size="12.00" fill="#2d3436">Gafaelfawr</text>
</g>
<!-- 670d604c6ac4470cb07c059c660a8221&#45;&gt;ff1fe0c75c9d471b92cb10dad8cdb918 -->
<g id="edge2" class="edge">
<title>670d604c6ac4470cb07c059c660a8221&#45;&gt;ff1fe0c75c9d471b92cb10dad8cdb918</title>
<path fill="none" stroke="#7b8894" d="M403.25,-83.2C443.5,-83.36 500.53,-83.59 543.44,-83.76"/>
<polygon fill="#7b8894" stroke="#7b8894" points="543.29,-87.26 553.3,-83.8 543.31,-80.26 543.29,-87.26"/>
<text text-anchor="middle" x="478.72" y="-84.15" font-family="Sans-Serif" font-size="13.00" fill="#2d3436">GET /auth/token</text>
</g>
<!-- ff1fe0c75c9d471b92cb10dad8cdb918&#45;&gt;670d604c6ac4470cb07c059c660a8221 -->
<g id="edge3" class="edge">
<title>ff1fe0c75c9d471b92cb10dad8cdb918&#45;&gt;670d604c6ac4470cb07c059c660a8221</title>
<path fill="none" stroke="#7b8894" d="M554.46,-71.06C545.42,-69.16 536.02,-67.51 527.1,-66.5 484.37,-61.67 473.11,-61.94 430.35,-66.5 424.92,-67.08 419.32,-67.88 413.72,-68.83"/>
<polygon fill="#7b8894" stroke="#7b8894" points="413.22,-65.55 404.02,-70.8 414.49,-72.43 413.22,-65.55"/>
<text text-anchor="middle" x="478.72" y="-67.15" font-family="Sans-Serif" font-size="13.00" fill="#2d3436">token</text>
</g>
</g>
</svg>
