<?xml version="1.0" encoding="UTF-8" standalone="no"?>
<!DOCTYPE svg PUBLIC "-//W3C//DTD SVG 1.1//EN"
 "http://www.w3.org/Graphics/SVG/1.1/DTD/svg11.dtd">
<!-- Generated by graphviz version 8.0.5 (20230430.1635)
 -->
<!-- Title: Acquire Fileserver Pages: 1 -->
<svg width="737pt" height="396pt"
 viewBox="0.00 0.00 737.00 396.20" xmlns="http://www.w3.org/2000/svg" xmlns:xlink="http://www.w3.org/1999/xlink">
<g id="graph0" class="graph" transform="scale(1 1) rotate(0) translate(14.4 381.8)">
<title>Acquire Fileserver</title>
<polygon fill="white" stroke="none" points="-14.4,14.4 -14.4,-381.8 722.6,-381.8 722.6,14.4 -14.4,14.4"/>
<g id="clust1" class="cluster">
<title>cluster_Fileserver Controller</title>
<path fill="#e5f5fd" stroke="#aeb6be" d="M20,-8C20,-8 440.65,-8 440.65,-8 446.65,-8 452.65,-14 452.65,-20 452.65,-20 452.65,-211 452.65,-211 452.65,-217 446.65,-223 440.65,-223 440.65,-223 20,-223 20,-223 14,-223 8,-217 8,-211 8,-211 8,-20 8,-20 8,-14 14,-8 20,-8"/>
<text text-anchor="middle" x="70.38" y="-207.6" font-family="Sans-Serif" font-size="12.00" fill="#2d3436">Fileserver Controller</text>
</g>
<!-- 845990f20c2c4801bec5ca690ba3ab06 -->
<g id="node1" class="node">
<title>845990f20c2c4801bec5ca690ba3ab06</title>
<image xlink:href="/Users/adam/Documents/src/Venvs/sphinx/lib/python3.9/site-packages/resources/onprem/client/user.png" width="100.8px" height="100.8px" preserveAspectRatio="xMinYMin meet" x="343.85" y="-349.4"/>
<text text-anchor="middle" x="394.25" y="-231.95" font-family="Sans-Serif" font-size="12.00" fill="#2d3436">User</text>
</g>
<!-- f5ff88e0dd6644ea918f5b7911bb0f50 -->
<g id="node2" class="node">
<title>f5ff88e0dd6644ea918f5b7911bb0f50</title>
<image xlink:href="/Users/adam/Documents/src/Venvs/sphinx/lib/python3.9/site-packages/resources/onprem/client/client.png" width="100.8px" height="100.8px" preserveAspectRatio="xMinYMin meet" x="607.4" y="-297.4"/>
<text text-anchor="middle" x="657.8" y="-179.95" font-family="Sans-Serif" font-size="12.00" fill="#2d3436">Browser</text>
</g>
<!-- 845990f20c2c4801bec5ca690ba3ab06&#45;&gt;f5ff88e0dd6644ea918f5b7911bb0f50 -->
<g id="edge4" class="edge">
<title>845990f20c2c4801bec5ca690ba3ab06&#45;&gt;f5ff88e0dd6644ea918f5b7911bb0f50</title>
<path fill="none" stroke="#7b8894" d="M444.45,-289.22C487.74,-280.61 550.88,-268.06 597.06,-258.88"/>
<polygon fill="#7b8894" stroke="#7b8894" points="597.7,-262.12 606.83,-256.74 596.33,-255.25 597.7,-262.12"/>
<text text-anchor="middle" x="526.02" y="-284.15" font-family="Sans-Serif" font-size="13.00" fill="#2d3436">Acquire Fileserver</text>
</g>
<!-- 27875d385aab48f886ded339c44c9813 -->
<g id="node3" class="node">
<title>27875d385aab48f886ded339c44c9813</title>
<image xlink:href="/Users/adam/Documents/src/Venvs/sphinx/lib/python3.9/site-packages/resources/programming/flowchart/decision.png" width="100.8px" height="100.8px" preserveAspectRatio="xMinYMin meet" x="16" y="-155.4"/>
<text text-anchor="middle" x="66.4" y="-99.97" font-family="Sans-Serif" font-size="12.00" fill="#2d3436">Fileserver OK?</text>
</g>
<!-- bd223eab5bec498cbab7765bfa93cb5c -->
<g id="node4" class="node">
<title>bd223eab5bec498cbab7765bfa93cb5c</title>
<image xlink:href="/Users/adam/Documents/src/Venvs/sphinx/lib/python3.9/site-packages/resources/programming/flowchart/display.png" width="100.8px" height="100.8px" preserveAspectRatio="xMinYMin meet" x="343.85" y="-176.4"/>
<text text-anchor="middle" x="394.25" y="-120.97" font-family="Sans-Serif" font-size="12.00" fill="#2d3436">Explanatory text</text>
</g>
<!-- 27875d385aab48f886ded339c44c9813&#45;&gt;bd223eab5bec498cbab7765bfa93cb5c -->
<g id="edge1" class="edge">
<title>27875d385aab48f886ded339c44c9813&#45;&gt;bd223eab5bec498cbab7765bfa93cb5c</title>
<path fill="none" stroke="#7b8894" d="M116.6,-69.96C137.57,-57.08 162.97,-44.04 188.05,-37.5 231.4,-26.2 246.79,-22.07 288.85,-37.5 305.73,-43.69 321.75,-53.95 335.94,-65.34"/>
<polygon fill="#7b8894" stroke="#7b8894" points="333.16,-68.41 343.08,-72.15 337.66,-63.04 333.16,-68.41"/>
<text text-anchor="middle" x="238.45" y="-39.15" font-family="Sans-Serif" font-size="13.00" fill="#2d3436">Yes</text>
</g>
<!-- a787e1b5980b47d78179c815e124aec4 -->
<g id="node5" class="node">
<title>a787e1b5980b47d78179c815e124aec4</title>
<image xlink:href="/Users/adam/Documents/src/Venvs/sphinx/lib/python3.9/site-packages/resources/programming/flowchart/action.png" width="100.8px" height="100.8px" preserveAspectRatio="xMinYMin meet" x="188.05" y="-176.4"/>
<text text-anchor="middle" x="238.45" y="-120.97" font-family="Sans-Serif" font-size="12.00" fill="#2d3436">Create Fileserver</text>
</g>
<!-- 27875d385aab48f886ded339c44c9813&#45;&gt;a787e1b5980b47d78179c815e124aec4 -->
<g id="edge2" class="edge">
<title>27875d385aab48f886ded339c44c9813&#45;&gt;a787e1b5980b47d78179c815e124aec4</title>
<path fill="none" stroke="#7b8894" d="M116.59,-111.07C135.54,-113.41 157.4,-116.11 177.27,-118.57"/>
<polygon fill="#7b8894" stroke="#7b8894" points="176.73,-122.15 187.08,-119.9 177.59,-115.2 176.73,-122.15"/>
<text text-anchor="middle" x="152.42" y="-117.15" font-family="Sans-Serif" font-size="13.00" fill="#2d3436">No</text>
</g>
<!-- bd223eab5bec498cbab7765bfa93cb5c&#45;&gt;f5ff88e0dd6644ea918f5b7911bb0f50 -->
<g id="edge5" class="edge">
<title>bd223eab5bec498cbab7765bfa93cb5c&#45;&gt;f5ff88e0dd6644ea918f5b7911bb0f50</title>
<path fill="none" stroke="#7b8894" d="M444.45,-148.76C488.01,-168.91 551.68,-198.37 597.94,-219.77"/>
<polygon fill="#7b8894" stroke="#7b8894" points="596.28,-223.32 606.83,-224.34 599.22,-216.97 596.28,-223.32"/>
<text text-anchor="middle" x="526.02" y="-212.15" font-family="Sans-Serif" font-size="13.00" fill="#2d3436">text response</text>
</g>
<!-- a787e1b5980b47d78179c815e124aec4&#45;&gt;bd223eab5bec498cbab7765bfa93cb5c -->
<g id="edge3" class="edge">
<title>a787e1b5980b47d78179c815e124aec4&#45;&gt;bd223eab5bec498cbab7765bfa93cb5c</title>
<path fill="none" stroke="#7b8894" d="M288.54,-126C302.83,-126 318.6,-126 333.47,-126"/>
<polygon fill="#7b8894" stroke="#7b8894" points="333.1,-129.5 343.1,-126 333.1,-122.5 333.1,-129.5"/>
</g>
</g>
</svg>
