<?xml version="1.0" encoding="UTF-8" standalone="no"?>
<!DOCTYPE svg PUBLIC "-//W3C//DTD SVG 1.1//EN"
 "http://www.w3.org/Graphics/SVG/1.1/DTD/svg11.dtd">
<!-- Generated by graphviz version 8.0.5 (20230430.1635)
 -->
<!-- Title: Delete Fileserver Pages: 1 -->
<svg width="571pt" height="354pt"
 viewBox="0.00 0.00 571.20 354.20" xmlns="http://www.w3.org/2000/svg" xmlns:xlink="http://www.w3.org/1999/xlink">
<g id="graph0" class="graph" transform="scale(1 1) rotate(0) translate(14.4 339.8)">
<title>Delete Fileserver</title>
<polygon fill="white" stroke="none" points="-14.4,14.4 -14.4,-339.8 556.8,-339.8 556.8,14.4 -14.4,14.4"/>
<g id="clust2" class="cluster">
<title>cluster_External Storage</title>
<path fill="#e5f5fd" stroke="#aeb6be" d="M429.6,-144.4C429.6,-144.4 522.4,-144.4 522.4,-144.4 528.4,-144.4 534.4,-150.4 534.4,-156.4 534.4,-156.4 534.4,-305.4 534.4,-305.4 534.4,-311.4 528.4,-317.4 522.4,-317.4 522.4,-317.4 429.6,-317.4 429.6,-317.4 423.6,-317.4 417.6,-311.4 417.6,-305.4 417.6,-305.4 417.6,-156.4 417.6,-156.4 417.6,-150.4 423.6,-144.4 429.6,-144.4"/>
<text text-anchor="middle" x="470.22" y="-302" font-family="Sans-Serif" font-size="12.00" fill="#2d3436">External Storage</text>
</g>
<g id="clust1" class="cluster">
<title>cluster_User Fileserver</title>
<path fill="#e5f5fd" stroke="#aeb6be" d="M20,-25.4C20,-25.4 268.6,-25.4 268.6,-25.4 274.6,-25.4 280.6,-31.4 280.6,-37.4 280.6,-37.4 280.6,-186.4 280.6,-186.4 280.6,-192.4 274.6,-198.4 268.6,-198.4 268.6,-198.4 20,-198.4 20,-198.4 14,-198.4 8,-192.4 8,-186.4 8,-186.4 8,-37.4 8,-37.4 8,-31.4 14,-25.4 20,-25.4"/>
<text text-anchor="middle" x="56.88" y="-183" font-family="Sans-Serif" font-size="12.00" fill="#2d3436">User Fileserver</text>
</g>
<!-- 2a76da9e0c9d4b41b40ee5f0a836f64f -->
<g id="node1" class="node">
<title>2a76da9e0c9d4b41b40ee5f0a836f64f</title>
<image xlink:href="/Users/adam/Documents/src/Venvs/sphinx/lib/python3.9/site-packages/resources/k8s/network/ing.png" width="100.8px" height="100.8px" preserveAspectRatio="xMinYMin meet" x="16" y="-151.8"/>
<text text-anchor="middle" x="66.4" y="-34.35" font-family="Sans-Serif" font-size="12.00" fill="#2d3436">/files/&lt;user&gt;</text>
</g>
<!-- 1371434b8c3a4aa981613b2fef50d58d -->
<g id="node2" class="node">
<title>1371434b8c3a4aa981613b2fef50d58d</title>
<image xlink:href="/Users/adam/Documents/src/Venvs/sphinx/lib/python3.9/site-packages/resources/k8s/compute/pod.png" width="100.8px" height="100.8px" preserveAspectRatio="xMinYMin meet" x="171.8" y="-151.8"/>
<text text-anchor="middle" x="222.2" y="-34.35" font-family="Sans-Serif" font-size="12.00" fill="#2d3436">User Fileserver</text>
</g>
<!-- 2a76da9e0c9d4b41b40ee5f0a836f64f&#45;&gt;1371434b8c3a4aa981613b2fef50d58d -->
<g id="edge1" class="edge">
<title>2a76da9e0c9d4b41b40ee5f0a836f64f&#45;&gt;1371434b8c3a4aa981613b2fef50d58d</title>
<path fill="none" stroke="#7b8894" d="M116.49,-101.4C130.78,-101.4 146.55,-101.4 161.42,-101.4"/>
<polygon fill="#7b8894" stroke="#7b8894" points="161.05,-104.9 171.05,-101.4 161.05,-97.9 161.05,-104.9"/>
</g>
<!-- 880f4679e5f5406fb06de6277eef341e -->
<g id="node3" class="node">
<title>880f4679e5f5406fb06de6277eef341e</title>
<image xlink:href="/Users/adam/Documents/src/Venvs/sphinx/lib/python3.9/site-packages/resources/generic/storage/storage.png" width="100.8px" height="100.8px" preserveAspectRatio="xMinYMin meet" x="425.6" y="-270.8"/>
<text text-anchor="middle" x="476" y="-153.35" font-family="Sans-Serif" font-size="12.00" fill="#2d3436">User Data</text>
</g>
<!-- 1371434b8c3a4aa981613b2fef50d58d&#45;&gt;880f4679e5f5406fb06de6277eef341e -->
<g id="edge2" class="edge">
<title>1371434b8c3a4aa981613b2fef50d58d&#45;&gt;880f4679e5f5406fb06de6277eef341e</title>
<path fill="none" stroke="#7b8894" d="M272.35,-124.63C316.72,-145.59 381.65,-176.28 425.98,-197.23"/>
</g>
<!-- c7ccbf407b8f464881c4151f1d502fb6 -->
<g id="node4" class="node">
<title>c7ccbf407b8f464881c4151f1d502fb6</title>
<image xlink:href="/Users/adam/Documents/src/Venvs/sphinx/lib/python3.9/site-packages/resources/programming/flowchart/action.png" width="100.8px" height="100.8px" preserveAspectRatio="xMinYMin meet" x="425.6" y="-118.8"/>
<text text-anchor="middle" x="476" y="-63.37" font-family="Sans-Serif" font-size="12.00" fill="#2d3436">Delete Fileserver</text>
</g>
<!-- 1371434b8c3a4aa981613b2fef50d58d&#45;&gt;c7ccbf407b8f464881c4151f1d502fb6 -->
<g id="edge3" class="edge">
<title>1371434b8c3a4aa981613b2fef50d58d&#45;&gt;c7ccbf407b8f464881c4151f1d502fb6</title>
<path fill="none" stroke="#7b8894" d="M272.49,-97.56C307.73,-94.51 356.21,-89.72 398.6,-83.4 403.98,-82.6 409.55,-81.68 415.13,-80.7"/>
<polygon fill="#7b8894" stroke="#7b8894" points="415.59,-83.99 424.8,-78.75 414.33,-77.1 415.59,-83.99"/>
<text text-anchor="middle" x="349.1" y="-95.55" font-family="Sans-Serif" font-size="13.00" fill="#2d3436">inactivity timeout</text>
</g>
<!-- c7ccbf407b8f464881c4151f1d502fb6&#45;&gt;1371434b8c3a4aa981613b2fef50d58d -->
<g id="edge4" class="edge">
<title>c7ccbf407b8f464881c4151f1d502fb6&#45;&gt;1371434b8c3a4aa981613b2fef50d58d</title>
<path fill="none" stroke="#7b8894" d="M425.65,-62.26C390.18,-59.23 341.43,-57.89 299.6,-66.9 293.91,-68.13 288.13,-69.81 282.43,-71.78"/>
<polygon fill="#7b8894" stroke="#7b8894" points="281.42,-68.8 273.3,-75.6 283.89,-75.35 281.42,-68.8"/>
<text text-anchor="middle" x="349.1" y="-67.55" font-family="Sans-Serif" font-size="13.00" fill="#2d3436">shut down</text>
</g>
</g>
</svg>
