<?xml version="1.0" encoding="UTF-8" standalone="no"?>
<!DOCTYPE svg PUBLIC "-//W3C//DTD SVG 1.1//EN"
 "http://www.w3.org/Graphics/SVG/1.1/DTD/svg11.dtd">
<!-- Generated by graphviz version 8.0.5 (20230430.1635)
 -->
<!-- Title: File Transfer Pages: 1 -->
<svg width="721pt" height="410pt"
 viewBox="0.00 0.00 720.90 410.30" xmlns="http://www.w3.org/2000/svg" xmlns:xlink="http://www.w3.org/1999/xlink">
<g id="graph0" class="graph" transform="scale(1 1) rotate(0) translate(14.4 395.9)">
<title>File Transfer</title>
<polygon fill="white" stroke="none" points="-14.4,14.4 -14.4,-395.9 706.5,-395.9 706.5,14.4 -14.4,14.4"/>
<g id="clust1" class="cluster">
<title>cluster_User Fileserver</title>
<path fill="#e5f5fd" stroke="#aeb6be" d="M20,-8C20,-8 344.2,-8 344.2,-8 350.2,-8 356.2,-14 356.2,-20 356.2,-20 356.2,-169 356.2,-169 356.2,-175 350.2,-181 344.2,-181 344.2,-181 20,-181 20,-181 14,-181 8,-175 8,-169 8,-169 8,-20 8,-20 8,-14 14,-8 20,-8"/>
<text text-anchor="middle" x="56.88" y="-165.6" font-family="Sans-Serif" font-size="12.00" fill="#2d3436">User Fileserver</text>
</g>
<g id="clust2" class="cluster">
<title>cluster_External Storage</title>
<path fill="#e5f5fd" stroke="#aeb6be" d="M579.3,-8C579.3,-8 672.1,-8 672.1,-8 678.1,-8 684.1,-14 684.1,-20 684.1,-20 684.1,-169 684.1,-169 684.1,-175 678.1,-181 672.1,-181 672.1,-181 579.3,-181 579.3,-181 573.3,-181 567.3,-175 567.3,-169 567.3,-169 567.3,-20 567.3,-20 567.3,-14 573.3,-8 579.3,-8"/>
<text text-anchor="middle" x="619.92" y="-165.6" font-family="Sans-Serif" font-size="12.00" fill="#2d3436">External Storage</text>
</g>
<!-- 2a2fc0663f8c43ecb6902cde66d0fc0d -->
<g id="node1" class="node">
<title>2a2fc0663f8c43ecb6902cde66d0fc0d</title>
<image xlink:href="/Users/adam/Documents/src/Venvs/sphinx/lib/python3.9/site-packages/resources/onprem/client/user.png" width="100.8px" height="100.8px" preserveAspectRatio="xMinYMin meet" x="247.4" y="-307.4"/>
<text text-anchor="middle" x="297.8" y="-189.95" font-family="Sans-Serif" font-size="12.00" fill="#2d3436">User</text>
</g>
<!-- b7f2b0c824a64c27a499b5e26ac96039 -->
<g id="node2" class="node">
<title>b7f2b0c824a64c27a499b5e26ac96039</title>
<image xlink:href="/Users/adam/Documents/src/Venvs/sphinx/lib/python3.9/site-packages/resources/onprem/client/client.png" width="100.8px" height="100.8px" preserveAspectRatio="xMinYMin meet" x="575.3" y="-307.4"/>
<text text-anchor="middle" x="625.7" y="-189.95" font-family="Sans-Serif" font-size="12.00" fill="#2d3436">WebDAV</text>
</g>
<!-- 2a2fc0663f8c43ecb6902cde66d0fc0d&#45;&gt;b7f2b0c824a64c27a499b5e26ac96039 -->
<g id="edge3" class="edge">
<title>2a2fc0663f8c43ecb6902cde66d0fc0d&#45;&gt;b7f2b0c824a64c27a499b5e26ac96039</title>
<path fill="none" stroke="#7b8894" d="M347.94,-257C405.9,-257 502.22,-257 564.58,-257"/>
<polygon fill="#7b8894" stroke="#7b8894" points="564.42,-260.5 574.42,-257 564.42,-253.5 564.42,-260.5"/>
<text text-anchor="middle" x="499.55" y="-258.15" font-family="Sans-Serif" font-size="13.00" fill="#2d3436">Manipulate Files</text>
</g>
<!-- a71eb8319717468eba30a5cdeccf6e6d -->
<g id="node3" class="node">
<title>a71eb8319717468eba30a5cdeccf6e6d</title>
<image xlink:href="/Users/adam/Documents/src/Venvs/sphinx/lib/python3.9/site-packages/resources/k8s/network/ing.png" width="100.8px" height="100.8px" preserveAspectRatio="xMinYMin meet" x="16" y="-134.4"/>
<text text-anchor="middle" x="66.4" y="-16.95" font-family="Sans-Serif" font-size="12.00" fill="#2d3436">/files/&lt;user&gt;</text>
</g>
<!-- b7f2b0c824a64c27a499b5e26ac96039&#45;&gt;a71eb8319717468eba30a5cdeccf6e6d -->
<g id="edge4" class="edge">
<title>b7f2b0c824a64c27a499b5e26ac96039&#45;&gt;a71eb8319717468eba30a5cdeccf6e6d</title>
<path fill="none" stroke="#7b8894" d="M575.42,-285.9C486.82,-333.66 298.12,-415.88 171.8,-332 115.56,-294.66 89.55,-220.45 77.56,-162.9"/>
<polygon fill="#7b8894" stroke="#7b8894" points="80.85,-162.49 75.48,-153.36 73.98,-163.85 80.85,-162.49"/>
<text text-anchor="middle" x="297.8" y="-369.15" font-family="Sans-Serif" font-size="13.00" fill="#2d3436">Headers: { Authorization: Bearer &lt;token&gt; }</text>
</g>
<!-- 0699bb50244a4e3c8ce05f2d5f3844f0 -->
<g id="node4" class="node">
<title>0699bb50244a4e3c8ce05f2d5f3844f0</title>
<image xlink:href="/Users/adam/Documents/src/Venvs/sphinx/lib/python3.9/site-packages/resources/k8s/compute/pod.png" width="100.8px" height="100.8px" preserveAspectRatio="xMinYMin meet" x="247.4" y="-134.4"/>
<text text-anchor="middle" x="297.8" y="-16.95" font-family="Sans-Serif" font-size="12.00" fill="#2d3436">User Fileserver</text>
</g>
<!-- a71eb8319717468eba30a5cdeccf6e6d&#45;&gt;0699bb50244a4e3c8ce05f2d5f3844f0 -->
<g id="edge1" class="edge">
<title>a71eb8319717468eba30a5cdeccf6e6d&#45;&gt;0699bb50244a4e3c8ce05f2d5f3844f0</title>
<path fill="none" stroke="#7b8894" d="M116.61,-84C151.84,-84 199.46,-84 236.9,-84"/>
<polygon fill="#7b8894" stroke="#7b8894" points="236.67,-87.5 246.67,-84 236.67,-80.5 236.67,-87.5"/>
</g>
<!-- 0699bb50244a4e3c8ce05f2d5f3844f0&#45;&gt;b7f2b0c824a64c27a499b5e26ac96039 -->
<g id="edge5" class="edge">
<title>0699bb50244a4e3c8ce05f2d5f3844f0&#45;&gt;b7f2b0c824a64c27a499b5e26ac96039</title>
<path fill="none" stroke="#7b8894" d="M357.63,-115.23C416.6,-146.53 506.9,-194.47 565.88,-225.77"/>
<polygon fill="#7b8894" stroke="#7b8894" points="359.42,-111.68 348.94,-110.09 356.13,-117.87 359.42,-111.68"/>
<polygon fill="#7b8894" stroke="#7b8894" points="563.95,-229.24 574.42,-230.84 567.23,-223.06 563.95,-229.24"/>
<text text-anchor="middle" x="499.55" y="-216.15" font-family="Sans-Serif" font-size="13.00" fill="#2d3436">file transfer</text>
</g>
<!-- bea36af41a784b2abaea0329161451c5 -->
<g id="node5" class="node">
<title>bea36af41a784b2abaea0329161451c5</title>
<image xlink:href="/Users/adam/Documents/src/Venvs/sphinx/lib/python3.9/site-packages/resources/generic/storage/storage.png" width="100.8px" height="100.8px" preserveAspectRatio="xMinYMin meet" x="575.3" y="-134.4"/>
<text text-anchor="middle" x="625.7" y="-16.95" font-family="Sans-Serif" font-size="12.00" fill="#2d3436">User Data</text>
</g>
<!-- 0699bb50244a4e3c8ce05f2d5f3844f0&#45;&gt;bea36af41a784b2abaea0329161451c5 -->
<g id="edge2" class="edge">
<title>0699bb50244a4e3c8ce05f2d5f3844f0&#45;&gt;bea36af41a784b2abaea0329161451c5</title>
<path fill="none" stroke="#7b8894" d="M347.94,-84C409.38,-84 513.93,-84 575.42,-84"/>
</g>
</g>
</svg>
